<mxfile host="Electron" agent="Mozilla/5.0 (Windows NT 10.0; Win64; x64) AppleWebKit/537.36 (KHTML, like Gecko) draw.io/25.0.2 Chrome/128.0.6613.186 Electron/32.2.5 Safari/537.36" version="25.0.2">
  <diagram name="Page-1" id="X6U52luH2ryi6jcxI2d2">
    <mxGraphModel dx="1058" dy="643" grid="1" gridSize="10" guides="1" tooltips="1" connect="1" arrows="1" fold="1" page="1" pageScale="1" pageWidth="850" pageHeight="1100" math="0" shadow="0">
      <root>
        <mxCell id="0" />
        <mxCell id="1" parent="0" />
        <mxCell id="XWmum2CBMNlat4GcM_Pf-200" value="" style="endArrow=none;html=1;rounded=0;fontFamily=CMU Sans Serif;" edge="1" parent="1">
          <mxGeometry width="50" height="50" relative="1" as="geometry">
            <mxPoint x="440" y="930" as="sourcePoint" />
            <mxPoint x="440" y="560" as="targetPoint" />
            <Array as="points" />
          </mxGeometry>
        </mxCell>
        <mxCell id="XWmum2CBMNlat4GcM_Pf-201" value="" style="endArrow=none;html=1;rounded=0;fontFamily=CMU Sans Serif;" edge="1" parent="1">
          <mxGeometry width="50" height="50" relative="1" as="geometry">
            <mxPoint x="240" y="930" as="sourcePoint" />
            <mxPoint x="240" y="560" as="targetPoint" />
            <Array as="points" />
          </mxGeometry>
        </mxCell>
        <mxCell id="XWmum2CBMNlat4GcM_Pf-202" value="" style="rounded=1;whiteSpace=wrap;html=1;fillColor=#CFCFCF;fontFamily=CMU Sans Serif;" vertex="1" parent="1">
          <mxGeometry x="79" y="620" width="120" height="120" as="geometry" />
        </mxCell>
        <mxCell id="XWmum2CBMNlat4GcM_Pf-203" value="&lt;font style=&quot;font-size: 50px;&quot;&gt;&lt;b style=&quot;font-size: 50px;&quot;&gt;M&lt;/b&gt;&lt;/font&gt;" style="text;strokeColor=none;align=center;fillColor=none;html=1;verticalAlign=middle;whiteSpace=wrap;rounded=0;strokeWidth=2;fontSize=50;fontColor=#595656;fontFamily=CMU Sans Serif;" vertex="1" parent="1">
          <mxGeometry x="106.5" y="625" width="65" height="60" as="geometry" />
        </mxCell>
        <mxCell id="XWmum2CBMNlat4GcM_Pf-204" value="&lt;b style=&quot;font-size: 15px;&quot;&gt;Learner&lt;/b&gt;&lt;b style=&quot;background-color: initial;&quot;&gt;&amp;nbsp;1&lt;/b&gt;" style="text;html=1;align=center;verticalAlign=middle;resizable=0;points=[];autosize=1;strokeColor=none;fillColor=none;fontSize=15;fontFamily=CMU Sans Serif;" vertex="1" parent="1">
          <mxGeometry x="48" y="899.4" width="90" height="30" as="geometry" />
        </mxCell>
        <mxCell id="XWmum2CBMNlat4GcM_Pf-205" value="&lt;span style=&quot;font-size: 25px;&quot;&gt;&lt;b style=&quot;font-size: 25px;&quot;&gt;...&lt;/b&gt;&lt;/span&gt;" style="text;html=1;align=center;verticalAlign=middle;resizable=0;points=[];autosize=1;strokeColor=none;fillColor=none;fontSize=25;rotation=90;fontFamily=CMU Sans Serif;" vertex="1" parent="1">
          <mxGeometry x="123" y="790" width="50" height="40" as="geometry" />
        </mxCell>
        <mxCell id="XWmum2CBMNlat4GcM_Pf-206" value="&lt;b style=&quot;font-size: 15px;&quot;&gt;Aggregator&lt;/b&gt;" style="text;html=1;align=center;verticalAlign=middle;resizable=0;points=[];autosize=1;strokeColor=none;fillColor=none;fontSize=15;fontFamily=CMU Sans Serif;" vertex="1" parent="1">
          <mxGeometry x="89" y="590" width="100" height="30" as="geometry" />
        </mxCell>
        <mxCell id="XWmum2CBMNlat4GcM_Pf-207" value="&lt;font color=&quot;#ffffff&quot;&gt;&lt;b&gt;4&lt;/b&gt;&lt;/font&gt;" style="ellipse;whiteSpace=wrap;html=1;aspect=fixed;labelBorderColor=none;strokeColor=default;fillColor=#000000;fontSize=15;fontFamily=CMU Sans Serif;" vertex="1" parent="1">
          <mxGeometry x="129" y="560" width="20" height="20" as="geometry" />
        </mxCell>
        <mxCell id="XWmum2CBMNlat4GcM_Pf-208" value="&lt;b style=&quot;font-size: 15px;&quot;&gt;Learner&lt;/b&gt;&lt;b style=&quot;background-color: initial;&quot;&gt;&amp;nbsp;N&lt;/b&gt;" style="text;html=1;align=center;verticalAlign=middle;resizable=0;points=[];autosize=1;strokeColor=none;fillColor=none;fontSize=15;fontFamily=CMU Sans Serif;" vertex="1" parent="1">
          <mxGeometry x="145" y="899.4" width="90" height="30" as="geometry" />
        </mxCell>
        <mxCell id="XWmum2CBMNlat4GcM_Pf-209" value="D" style="group;fontStyle=4;fontFamily=CMU Sans Serif;" vertex="1" connectable="0" parent="1">
          <mxGeometry x="55" y="769.7" width="76" height="129.7" as="geometry" />
        </mxCell>
        <mxCell id="XWmum2CBMNlat4GcM_Pf-210" value="&lt;font style=&quot;font-size: 50px;&quot;&gt;&lt;b style=&quot;&quot;&gt;&lt;font color=&quot;#ff3333&quot;&gt;M&lt;/font&gt;&lt;/b&gt;&lt;/font&gt;&lt;div&gt;&lt;font style=&quot;font-size: 50px;&quot;&gt;&lt;b style=&quot;&quot;&gt;&lt;font color=&quot;#ff3333&quot;&gt;D&lt;/font&gt;&lt;/b&gt;&lt;/font&gt;&lt;/div&gt;" style="rounded=1;whiteSpace=wrap;html=1;fillColor=#CFCFCF;align=center;fontFamily=CMU Sans Serif;" vertex="1" parent="XWmum2CBMNlat4GcM_Pf-209">
          <mxGeometry width="72.96000000000001" height="129.7" as="geometry" />
        </mxCell>
        <mxCell id="XWmum2CBMNlat4GcM_Pf-211" value="D" style="group;fontStyle=4;fontFamily=CMU Sans Serif;" vertex="1" connectable="0" parent="1">
          <mxGeometry x="152" y="769.7" width="76" height="129.7" as="geometry" />
        </mxCell>
        <mxCell id="XWmum2CBMNlat4GcM_Pf-212" value="&lt;b style=&quot;color: rgb(0, 102, 204); font-size: 50px;&quot;&gt;M&lt;/b&gt;&lt;div&gt;&lt;b style=&quot;color: rgb(0, 102, 204); font-size: 50px;&quot;&gt;D&lt;/b&gt;&lt;font style=&quot;font-size: 50px;&quot;&gt;&lt;b style=&quot;&quot;&gt;&lt;br&gt;&lt;/b&gt;&lt;/font&gt;&lt;/div&gt;" style="rounded=1;whiteSpace=wrap;html=1;fillColor=#CFCFCF;align=center;fontFamily=CMU Sans Serif;" vertex="1" parent="XWmum2CBMNlat4GcM_Pf-211">
          <mxGeometry width="72.96000000000001" height="129.7" as="geometry" />
        </mxCell>
        <mxCell id="XWmum2CBMNlat4GcM_Pf-213" value="" style="rounded=1;whiteSpace=wrap;html=1;fillColor=#CFCFCF;fontFamily=CMU Sans Serif;" vertex="1" parent="1">
          <mxGeometry x="281" y="620" width="120" height="120" as="geometry" />
        </mxCell>
        <mxCell id="XWmum2CBMNlat4GcM_Pf-214" value="&lt;b style=&quot;font-size: 15px;&quot;&gt;Learner&lt;/b&gt;&lt;b style=&quot;background-color: initial;&quot;&gt;&amp;nbsp;1&lt;/b&gt;" style="text;html=1;align=center;verticalAlign=middle;resizable=0;points=[];autosize=1;strokeColor=none;fillColor=none;fontSize=15;fontFamily=CMU Sans Serif;" vertex="1" parent="1">
          <mxGeometry x="250" y="899.4" width="90" height="30" as="geometry" />
        </mxCell>
        <mxCell id="XWmum2CBMNlat4GcM_Pf-215" value="&lt;span style=&quot;font-size: 25px;&quot;&gt;&lt;b style=&quot;font-size: 25px;&quot;&gt;...&lt;/b&gt;&lt;/span&gt;" style="text;html=1;align=center;verticalAlign=middle;resizable=0;points=[];autosize=1;strokeColor=none;fillColor=none;fontSize=25;rotation=90;fontFamily=CMU Sans Serif;" vertex="1" parent="1">
          <mxGeometry x="325" y="790" width="50" height="40" as="geometry" />
        </mxCell>
        <mxCell id="XWmum2CBMNlat4GcM_Pf-216" value="&lt;b style=&quot;font-size: 15px;&quot;&gt;Aggregator&lt;/b&gt;" style="text;html=1;align=center;verticalAlign=middle;resizable=0;points=[];autosize=1;strokeColor=none;fillColor=none;fontSize=15;fontFamily=CMU Sans Serif;" vertex="1" parent="1">
          <mxGeometry x="291" y="590" width="100" height="30" as="geometry" />
        </mxCell>
        <mxCell id="XWmum2CBMNlat4GcM_Pf-217" value="&lt;font color=&quot;#ffffff&quot;&gt;&lt;b&gt;5&lt;/b&gt;&lt;/font&gt;" style="ellipse;whiteSpace=wrap;html=1;aspect=fixed;labelBorderColor=none;strokeColor=default;fillColor=#000000;fontSize=15;fontFamily=CMU Sans Serif;" vertex="1" parent="1">
          <mxGeometry x="331" y="560" width="20" height="20" as="geometry" />
        </mxCell>
        <mxCell id="XWmum2CBMNlat4GcM_Pf-218" value="&lt;b style=&quot;font-size: 15px;&quot;&gt;Learner&lt;/b&gt;&lt;b style=&quot;background-color: initial;&quot;&gt;&amp;nbsp;N&lt;/b&gt;" style="text;html=1;align=center;verticalAlign=middle;resizable=0;points=[];autosize=1;strokeColor=none;fillColor=none;fontSize=15;fontFamily=CMU Sans Serif;" vertex="1" parent="1">
          <mxGeometry x="347" y="899.4" width="90" height="30" as="geometry" />
        </mxCell>
        <mxCell id="XWmum2CBMNlat4GcM_Pf-219" value="D" style="group;fontStyle=4;fontFamily=CMU Sans Serif;" vertex="1" connectable="0" parent="1">
          <mxGeometry x="257" y="769.7" width="76" height="129.7" as="geometry" />
        </mxCell>
        <mxCell id="XWmum2CBMNlat4GcM_Pf-220" value="&lt;div&gt;&lt;b style=&quot;font-size: 50px; background-color: initial;&quot;&gt;&lt;font color=&quot;#ff3333&quot;&gt;M&lt;/font&gt;&lt;/b&gt;&lt;br&gt;&lt;/div&gt;&lt;font style=&quot;font-size: 50px;&quot;&gt;&lt;b style=&quot;&quot;&gt;&lt;font color=&quot;#ff3333&quot;&gt;D&lt;/font&gt;&lt;/b&gt;&lt;/font&gt;" style="rounded=1;whiteSpace=wrap;html=1;fillColor=#CFCFCF;align=center;fontFamily=CMU Sans Serif;" vertex="1" parent="XWmum2CBMNlat4GcM_Pf-219">
          <mxGeometry width="72.96000000000001" height="129.7" as="geometry" />
        </mxCell>
        <mxCell id="XWmum2CBMNlat4GcM_Pf-221" value="D" style="group;fontStyle=4;fontFamily=CMU Sans Serif;" vertex="1" connectable="0" parent="1">
          <mxGeometry x="354" y="769.7" width="76" height="129.7" as="geometry" />
        </mxCell>
        <mxCell id="XWmum2CBMNlat4GcM_Pf-222" value="&lt;b style=&quot;color: rgb(0, 102, 204); font-size: 50px;&quot;&gt;M&lt;/b&gt;&lt;div&gt;&lt;b style=&quot;color: rgb(0, 102, 204); font-size: 50px;&quot;&gt;D&lt;/b&gt;&lt;font style=&quot;font-size: 50px;&quot;&gt;&lt;b style=&quot;&quot;&gt;&lt;br&gt;&lt;/b&gt;&lt;/font&gt;&lt;/div&gt;" style="rounded=1;whiteSpace=wrap;html=1;fillColor=#CFCFCF;align=center;fontFamily=CMU Sans Serif;" vertex="1" parent="XWmum2CBMNlat4GcM_Pf-221">
          <mxGeometry width="72.96000000000001" height="129.7" as="geometry" />
        </mxCell>
        <mxCell id="XWmum2CBMNlat4GcM_Pf-223" style="edgeStyle=orthogonalEdgeStyle;rounded=0;orthogonalLoop=1;jettySize=auto;html=1;entryX=0.5;entryY=0;entryDx=0;entryDy=0;fontFamily=CMU Sans Serif;" edge="1" parent="1" source="XWmum2CBMNlat4GcM_Pf-225" target="XWmum2CBMNlat4GcM_Pf-232">
          <mxGeometry relative="1" as="geometry">
            <Array as="points">
              <mxPoint x="536" y="750" />
              <mxPoint x="489" y="750" />
            </Array>
          </mxGeometry>
        </mxCell>
        <mxCell id="XWmum2CBMNlat4GcM_Pf-224" style="edgeStyle=orthogonalEdgeStyle;rounded=0;orthogonalLoop=1;jettySize=auto;html=1;entryX=0.5;entryY=0;entryDx=0;entryDy=0;fontFamily=CMU Sans Serif;" edge="1" parent="1" source="XWmum2CBMNlat4GcM_Pf-225" target="XWmum2CBMNlat4GcM_Pf-235">
          <mxGeometry relative="1" as="geometry">
            <Array as="points">
              <mxPoint x="536" y="750" />
              <mxPoint x="586" y="750" />
            </Array>
          </mxGeometry>
        </mxCell>
        <mxCell id="XWmum2CBMNlat4GcM_Pf-225" value="" style="rounded=1;whiteSpace=wrap;html=1;fillColor=#CFCFCF;fontFamily=CMU Sans Serif;" vertex="1" parent="1">
          <mxGeometry x="476" y="620" width="120" height="120" as="geometry" />
        </mxCell>
        <mxCell id="XWmum2CBMNlat4GcM_Pf-226" value="&lt;b style=&quot;font-size: 15px;&quot;&gt;Learner&lt;/b&gt;&lt;b style=&quot;background-color: initial;&quot;&gt;&amp;nbsp;1&lt;/b&gt;" style="text;html=1;align=center;verticalAlign=middle;resizable=0;points=[];autosize=1;strokeColor=none;fillColor=none;fontSize=15;fontFamily=CMU Sans Serif;" vertex="1" parent="1">
          <mxGeometry x="445" y="899.4" width="90" height="30" as="geometry" />
        </mxCell>
        <mxCell id="XWmum2CBMNlat4GcM_Pf-227" value="&lt;span style=&quot;font-size: 25px;&quot;&gt;&lt;b style=&quot;font-size: 25px;&quot;&gt;...&lt;/b&gt;&lt;/span&gt;" style="text;html=1;align=center;verticalAlign=middle;resizable=0;points=[];autosize=1;strokeColor=none;fillColor=none;fontSize=25;rotation=90;fontFamily=CMU Sans Serif;" vertex="1" parent="1">
          <mxGeometry x="520" y="790" width="50" height="40" as="geometry" />
        </mxCell>
        <mxCell id="XWmum2CBMNlat4GcM_Pf-228" value="&lt;b style=&quot;font-size: 15px;&quot;&gt;Aggregator&lt;/b&gt;" style="text;html=1;align=center;verticalAlign=middle;resizable=0;points=[];autosize=1;strokeColor=none;fillColor=none;fontSize=15;fontFamily=CMU Sans Serif;" vertex="1" parent="1">
          <mxGeometry x="486" y="590" width="100" height="30" as="geometry" />
        </mxCell>
        <mxCell id="XWmum2CBMNlat4GcM_Pf-229" value="&lt;font color=&quot;#ffffff&quot;&gt;&lt;b&gt;6&lt;/b&gt;&lt;/font&gt;" style="ellipse;whiteSpace=wrap;html=1;aspect=fixed;labelBorderColor=none;strokeColor=default;fillColor=#000000;fontSize=15;fontFamily=CMU Sans Serif;" vertex="1" parent="1">
          <mxGeometry x="526" y="560" width="20" height="20" as="geometry" />
        </mxCell>
        <mxCell id="XWmum2CBMNlat4GcM_Pf-230" value="&lt;b style=&quot;font-size: 15px;&quot;&gt;Learner&lt;/b&gt;&lt;b style=&quot;background-color: initial;&quot;&gt;&amp;nbsp;N&lt;/b&gt;" style="text;html=1;align=center;verticalAlign=middle;resizable=0;points=[];autosize=1;strokeColor=none;fillColor=none;fontSize=15;fontFamily=CMU Sans Serif;" vertex="1" parent="1">
          <mxGeometry x="542" y="899.4" width="90" height="30" as="geometry" />
        </mxCell>
        <mxCell id="XWmum2CBMNlat4GcM_Pf-231" value="D" style="group;fontStyle=4;fontFamily=CMU Sans Serif;fontColor=#ff3333;" vertex="1" connectable="0" parent="1">
          <mxGeometry x="452" y="769.7" width="76" height="129.7" as="geometry" />
        </mxCell>
        <mxCell id="XWmum2CBMNlat4GcM_Pf-232" value="&lt;b style=&quot;color: rgb(255, 0, 128); font-size: 50px;&quot;&gt;M&lt;/b&gt;&lt;div&gt;&lt;font style=&quot;font-size: 50px;&quot;&gt;&lt;b style=&quot;&quot;&gt;&lt;font color=&quot;#ff3333&quot;&gt;D&lt;/font&gt;&lt;/b&gt;&lt;/font&gt;&lt;/div&gt;" style="rounded=1;whiteSpace=wrap;html=1;fillColor=#CFCFCF;align=center;fontFamily=CMU Sans Serif;" vertex="1" parent="XWmum2CBMNlat4GcM_Pf-231">
          <mxGeometry width="72.96000000000001" height="129.7" as="geometry" />
        </mxCell>
        <mxCell id="XWmum2CBMNlat4GcM_Pf-233" value="" style="shape=image;verticalLabelPosition=bottom;labelBackgroundColor=default;verticalAlign=top;aspect=fixed;imageAspect=0;image=data:image/svg+xml,PHN2ZyB4bWxucz0iaHR0cDovL3d3dy53My5vcmcvMjAwMC9zdmciIHhtbDpzcGFjZT0icHJlc2VydmUiIGlkPSJzdmc1IiB2ZXJzaW9uPSIxLjEiIHZpZXdCb3g9IjAgMCAzMC4xNTUyODUgMzAuMTU1MDE0IiBoZWlnaHQ9IjMwLjE1NTAxNG1tIiB3aWR0aD0iMzAuMTU1Mjg1bW0iPjxkZWZzIGlkPSJkZWZzMiI+PG1hcmtlciBwcmVzZXJ2ZUFzcGVjdFJhdGlvPSJ4TWlkWU1pZCIgdmlld0JveD0iMCAwIDQuMjA3MTA2OCA3IiBtYXJrZXJIZWlnaHQ9IjUuMjUiIG1hcmtlcldpZHRoPSIzIiBvcmllbnQ9ImF1dG8tc3RhcnQtcmV2ZXJzZSIgcmVmWT0iMCIgcmVmWD0iMCIgaWQ9IkFycm93MyIgc3R5bGU9Im92ZXJmbG93OnZpc2libGUiPjxwYXRoIHRyYW5zZm9ybT0icm90YXRlKDE4MCwwLjEyNSwwKSIgaWQ9ImFycm93MyIgZD0iTSAzLC0zIDAsMCAzLDMiIHN0eWxlPSJmaWxsOm5vbmU7c3Ryb2tlOmNvbnRleHQtc3Ryb2tlO3N0cm9rZS13aWR0aDoxO3N0cm9rZS1saW5lY2FwOnJvdW5kIi8+PC9tYXJrZXI+PC9kZWZzPjxnIHRyYW5zZm9ybT0idHJhbnNsYXRlKC0zOS4wNTE3MTcsLTI0Ni4xNTg5MSkiIGlkPSJsYXllcjEiPjxwYXRoIGQ9Im0gNjMuODY5NzQ2LDI1MC4yNTU0OCBjIC01LjE3NjU5MSwtNC41OTIxMyAtMTIuODU3NDI2LC00Ljk0NDgzIC0xOC40MzMwNzMsLTAuODQ2NDMgLTUuNTc1NjQ3LDQuMDk4NCAtNy41MzEzMjcsMTEuNTM0NDYgLTQuNjkzMzk0LDE3Ljg0NTYzIDIuODM3OTMsNi4zMTExNyA5LjY5ODQ3NSw5Ljc4Mjg2IDE2LjQ2NDQ2OCw4LjMzMTYyIDYuNzY1OTk5LC0xLjQ1MTI0IDExLjU5OTI2OSwtNy40MzExNCAxMS41OTkyNTksLTE0LjM1MTAyIiBzdHlsZT0iZmlsbDpub25lO3N0cm9rZTojNjI2MjYyO3N0cm9rZS13aWR0aDowLjg7c3Ryb2tlLWxpbmVjYXA6YnV0dDtzdHJva2UtbGluZWpvaW46YmV2ZWw7c3Ryb2tlLWRhc2hhcnJheTpub25lO3N0cm9rZS1kYXNob2Zmc2V0OjA7c3Ryb2tlLW9wYWNpdHk6MTttYXJrZXItc3RhcnQ6dXJsKCNBcnJvdzMpIiBpZD0icGF0aDI4MDk3Ii8+PC9nPjwvc3ZnPg==;fontFamily=CMU Sans Serif;" vertex="1" parent="XWmum2CBMNlat4GcM_Pf-231">
          <mxGeometry x="7" y="1.2999999999999998" width="58.7" height="58.7" as="geometry" />
        </mxCell>
        <mxCell id="XWmum2CBMNlat4GcM_Pf-234" value="D" style="group;fontStyle=4;fontFamily=CMU Sans Serif;" vertex="1" connectable="0" parent="1">
          <mxGeometry x="549" y="769.7" width="76" height="129.7" as="geometry" />
        </mxCell>
        <mxCell id="XWmum2CBMNlat4GcM_Pf-235" value="&lt;b style=&quot;color: rgb(255, 0, 128); font-size: 50px;&quot;&gt;M&lt;/b&gt;&lt;div&gt;&lt;b style=&quot;color: rgb(0, 102, 204); font-size: 50px;&quot;&gt;D&lt;/b&gt;&lt;font style=&quot;font-size: 50px;&quot;&gt;&lt;b style=&quot;&quot;&gt;&lt;br&gt;&lt;/b&gt;&lt;/font&gt;&lt;/div&gt;" style="rounded=1;whiteSpace=wrap;html=1;fillColor=#CFCFCF;align=center;fontFamily=CMU Sans Serif;" vertex="1" parent="XWmum2CBMNlat4GcM_Pf-234">
          <mxGeometry width="72.96000000000001" height="129.7" as="geometry" />
        </mxCell>
        <mxCell id="XWmum2CBMNlat4GcM_Pf-248" value="" style="shape=image;verticalLabelPosition=bottom;labelBackgroundColor=default;verticalAlign=top;aspect=fixed;imageAspect=0;image=data:image/svg+xml,PHN2ZyB4bWxucz0iaHR0cDovL3d3dy53My5vcmcvMjAwMC9zdmciIHhtbDpzcGFjZT0icHJlc2VydmUiIGlkPSJzdmc1IiB2ZXJzaW9uPSIxLjEiIHZpZXdCb3g9IjAgMCAzMC4xNTUyODUgMzAuMTU1MDE0IiBoZWlnaHQ9IjMwLjE1NTAxNG1tIiB3aWR0aD0iMzAuMTU1Mjg1bW0iPjxkZWZzIGlkPSJkZWZzMiI+PG1hcmtlciBwcmVzZXJ2ZUFzcGVjdFJhdGlvPSJ4TWlkWU1pZCIgdmlld0JveD0iMCAwIDQuMjA3MTA2OCA3IiBtYXJrZXJIZWlnaHQ9IjUuMjUiIG1hcmtlcldpZHRoPSIzIiBvcmllbnQ9ImF1dG8tc3RhcnQtcmV2ZXJzZSIgcmVmWT0iMCIgcmVmWD0iMCIgaWQ9IkFycm93MyIgc3R5bGU9Im92ZXJmbG93OnZpc2libGUiPjxwYXRoIHRyYW5zZm9ybT0icm90YXRlKDE4MCwwLjEyNSwwKSIgaWQ9ImFycm93MyIgZD0iTSAzLC0zIDAsMCAzLDMiIHN0eWxlPSJmaWxsOm5vbmU7c3Ryb2tlOmNvbnRleHQtc3Ryb2tlO3N0cm9rZS13aWR0aDoxO3N0cm9rZS1saW5lY2FwOnJvdW5kIi8+PC9tYXJrZXI+PC9kZWZzPjxnIHRyYW5zZm9ybT0idHJhbnNsYXRlKC0zOS4wNTE3MTcsLTI0Ni4xNTg5MSkiIGlkPSJsYXllcjEiPjxwYXRoIGQ9Im0gNjMuODY5NzQ2LDI1MC4yNTU0OCBjIC01LjE3NjU5MSwtNC41OTIxMyAtMTIuODU3NDI2LC00Ljk0NDgzIC0xOC40MzMwNzMsLTAuODQ2NDMgLTUuNTc1NjQ3LDQuMDk4NCAtNy41MzEzMjcsMTEuNTM0NDYgLTQuNjkzMzk0LDE3Ljg0NTYzIDIuODM3OTMsNi4zMTExNyA5LjY5ODQ3NSw5Ljc4Mjg2IDE2LjQ2NDQ2OCw4LjMzMTYyIDYuNzY1OTk5LC0xLjQ1MTI0IDExLjU5OTI2OSwtNy40MzExNCAxMS41OTkyNTksLTE0LjM1MTAyIiBzdHlsZT0iZmlsbDpub25lO3N0cm9rZTojNjI2MjYyO3N0cm9rZS13aWR0aDowLjg7c3Ryb2tlLWxpbmVjYXA6YnV0dDtzdHJva2UtbGluZWpvaW46YmV2ZWw7c3Ryb2tlLWRhc2hhcnJheTpub25lO3N0cm9rZS1kYXNob2Zmc2V0OjA7c3Ryb2tlLW9wYWNpdHk6MTttYXJrZXItc3RhcnQ6dXJsKCNBcnJvdzMpIiBpZD0icGF0aDI4MDk3Ii8+PC9nPjwvc3ZnPg==;fontFamily=CMU Sans Serif;" vertex="1" parent="XWmum2CBMNlat4GcM_Pf-234">
          <mxGeometry x="7.1299999999999955" y="1.599999999999909" width="58.7" height="58.7" as="geometry" />
        </mxCell>
        <mxCell id="XWmum2CBMNlat4GcM_Pf-237" value="&lt;font style=&quot;font-size: 50px;&quot;&gt;&lt;b style=&quot;color: rgb(0, 0, 0);&quot;&gt;&lt;font color=&quot;#ff3333&quot;&gt;P&lt;/font&gt;&lt;/b&gt;&lt;b style=&quot;font-size: 50px;&quot;&gt;&amp;nbsp;&lt;/b&gt;&lt;/font&gt;&lt;b style=&quot;color: rgb(0, 102, 204);&quot;&gt;P&lt;/b&gt;" style="text;strokeColor=none;align=center;fillColor=none;html=1;verticalAlign=middle;whiteSpace=wrap;rounded=0;strokeWidth=2;fontSize=50;fontColor=#595656;fontFamily=CMU Sans Serif;" vertex="1" parent="1">
          <mxGeometry x="79" y="680" width="120" height="60" as="geometry" />
        </mxCell>
        <mxCell id="XWmum2CBMNlat4GcM_Pf-238" style="edgeStyle=orthogonalEdgeStyle;rounded=0;orthogonalLoop=1;jettySize=auto;html=1;fontFamily=CMU Sans Serif;" edge="1" parent="1" source="XWmum2CBMNlat4GcM_Pf-210" target="XWmum2CBMNlat4GcM_Pf-237">
          <mxGeometry relative="1" as="geometry">
            <Array as="points">
              <mxPoint x="91" y="760" />
              <mxPoint x="139" y="760" />
            </Array>
          </mxGeometry>
        </mxCell>
        <mxCell id="XWmum2CBMNlat4GcM_Pf-239" style="edgeStyle=orthogonalEdgeStyle;rounded=0;orthogonalLoop=1;jettySize=auto;html=1;entryX=0.5;entryY=1;entryDx=0;entryDy=0;fontFamily=CMU Sans Serif;" edge="1" parent="1" source="XWmum2CBMNlat4GcM_Pf-212" target="XWmum2CBMNlat4GcM_Pf-237">
          <mxGeometry relative="1" as="geometry">
            <Array as="points">
              <mxPoint x="189" y="760" />
              <mxPoint x="139" y="760" />
            </Array>
          </mxGeometry>
        </mxCell>
        <mxCell id="XWmum2CBMNlat4GcM_Pf-240" value="&lt;span style=&quot;font-size: 25px;&quot;&gt;&lt;b style=&quot;font-size: 25px;&quot;&gt;...&lt;/b&gt;&lt;/span&gt;" style="text;html=1;align=center;verticalAlign=middle;resizable=0;points=[];autosize=1;strokeColor=none;fillColor=none;fontSize=25;rotation=90;fontFamily=CMU Sans Serif;" vertex="1" parent="1">
          <mxGeometry x="123" y="690" width="50" height="40" as="geometry" />
        </mxCell>
        <mxCell id="XWmum2CBMNlat4GcM_Pf-241" value="&lt;font style=&quot;font-size: 50px;&quot;&gt;&lt;b style=&quot;font-size: 50px;&quot;&gt;M&lt;/b&gt;&lt;/font&gt;" style="text;strokeColor=none;align=center;fillColor=none;html=1;verticalAlign=middle;whiteSpace=wrap;rounded=0;strokeWidth=2;fontSize=50;fontColor=#FF0080;fontFamily=CMU Sans Serif;" vertex="1" parent="1">
          <mxGeometry x="308.5" y="625" width="65" height="60" as="geometry" />
        </mxCell>
        <mxCell id="XWmum2CBMNlat4GcM_Pf-242" value="&lt;font style=&quot;font-size: 50px;&quot;&gt;&lt;b style=&quot;font-size: 50px;&quot;&gt;P&lt;/b&gt;&lt;/font&gt;" style="text;strokeColor=none;align=center;fillColor=none;html=1;verticalAlign=middle;whiteSpace=wrap;rounded=0;strokeWidth=2;fontSize=50;fontColor=#FF0080;fontFamily=CMU Sans Serif;" vertex="1" parent="1">
          <mxGeometry x="308.5" y="680" width="65" height="60" as="geometry" />
        </mxCell>
        <mxCell id="XWmum2CBMNlat4GcM_Pf-243" value="&lt;font style=&quot;font-size: 50px;&quot;&gt;&lt;b style=&quot;font-size: 50px;&quot;&gt;M&lt;/b&gt;&lt;/font&gt;" style="text;strokeColor=none;align=center;fillColor=none;html=1;verticalAlign=middle;whiteSpace=wrap;rounded=0;strokeWidth=2;fontSize=50;fontColor=#FF0080;fontFamily=CMU Sans Serif;" vertex="1" parent="1">
          <mxGeometry x="503.5" y="620" width="65" height="60" as="geometry" />
        </mxCell>
        <mxCell id="XWmum2CBMNlat4GcM_Pf-244" value="&lt;font style=&quot;font-size: 50px;&quot;&gt;&lt;b style=&quot;font-size: 50px;&quot;&gt;P&lt;/b&gt;&lt;/font&gt;" style="text;strokeColor=none;align=center;fillColor=none;html=1;verticalAlign=middle;whiteSpace=wrap;rounded=0;strokeWidth=2;fontSize=50;fontColor=#FF0080;fontFamily=CMU Sans Serif;" vertex="1" parent="1">
          <mxGeometry x="503.5" y="675" width="65" height="60" as="geometry" />
        </mxCell>
      </root>
    </mxGraphModel>
  </diagram>
</mxfile>
